<svg width="100" height="100" viewBox="0 0 100 100" xmlns="http://www.w3.org/2000/svg">
  <!-- Background Circle -->
  <circle cx="50" cy="50" r="45" fill="#3498db" stroke="#2c3e50" stroke-width="2"/>
  
  <!-- Inner Background -->
  <circle cx="50" cy="50" r="40" fill="#ecf0f1"/>
  
  <!-- Book Stack -->
  <rect x="20" y="45" width="30" height="5" fill="#e74c3c" rx="1"/>
  <rect x="22" y="39" width="28" height="5" fill="#27ae60" rx="1"/>
  <rect x="24" y="33" width="26" height="5" fill="#f39c12" rx="1"/>
  
  <!-- Open Book -->
  <path d="M55 35 Q65 30 75 35 L75 60 Q65 55 55 60 Z" fill="#fff" stroke="#2c3e50" stroke-width="1.2"/>
  <path d="M55 35 Q45 30 35 35 L35 60 Q45 55 55 60 Z" fill="#fff" stroke="#2c3e50" stroke-width="1.2"/>
  <line x1="55" y1="35" x2="55" y2="60" stroke="#2c3e50" stroke-width="1.2"/>
  
  <!-- Book Lines -->
  <line x1="40" y1="42" x2="50" y2="42" stroke="#bdc3c7" stroke-width="0.8"/>
  <line x1="40" y1="46" x2="48" y2="46" stroke="#bdc3c7" stroke-width="0.8"/>
  <line x1="40" y1="50" x2="50" y2="50" stroke="#bdc3c7" stroke-width="0.8"/>
  
  <line x1="60" y1="42" x2="70" y2="42" stroke="#bdc3c7" stroke-width="0.8"/>
  <line x1="62" y1="46" x2="70" y2="46" stroke="#bdc3c7" stroke-width="0.8"/>
  <line x1="60" y1="50" x2="70" y2="50" stroke="#bdc3c7" stroke-width="0.8"/>
  
  <!-- Pencil -->
  <rect x="65" y="20" width="3" height="16" fill="#f39c12" rx="1.5"/>
  <polygon points="65,20 68,20 66.5,16" fill="#e74c3c"/>
  <rect x="65.5" y="35" width="2" height="2" fill="#2c3e50"/>
  
  <!-- Calendar Icon -->
  <rect x="15" y="65" width="16" height="15" fill="#fff" stroke="#2c3e50" stroke-width="1.2" rx="1"/>
  <rect x="15" y="65" width="16" height="4" fill="#9b59b6" rx="1 1 0 0"/>
  <line x1="18" y1="63" x2="18" y2="67" stroke="#2c3e50" stroke-width="0.8"/>
  <line x1="28" y1="63" x2="28" y2="67" stroke="#2c3e50" stroke-width="0.8"/>
  
  <!-- Calendar Dots -->
  <circle cx="19" cy="73" r="0.8" fill="#2c3e50"/>
  <circle cx="23" cy="73" r="0.8" fill="#2c3e50"/>
  <circle cx="27" cy="73" r="0.8" fill="#2c3e50"/>
  <circle cx="19" cy="76" r="0.8" fill="#e74c3c"/>
  <circle cx="23" cy="76" r="0.8" fill="#2c3e50"/>
  
  <!-- Checkmark -->
  <circle cx="75" cy="75" r="10" fill="#27ae60"/>
  <path d="M71 75 L73 77 L79 71" stroke="#fff" stroke-width="2" fill="none" stroke-linecap="round" stroke-linejoin="round"/>
  
  <!-- Study Stars -->
  <polygon points="85,25 86,27 88,27 87,28 87,30 85,29 83,30 84,28 82,27 84,27" fill="#f1c40f"/>
  <polygon points="12,30 13,32 15,32 14,33 14,35 12,34 10,35 11,33 9,32 11,32" fill="#f1c40f"/>
</svg>
